<?xml version="1.0" encoding="iso-8859-1"?>
<!-- Generator: Adobe Illustrator 19.0.0, SVG Export Plug-In . SVG Version: 6.00 Build 0)  -->
<svg version="1.1" id="Layer_1" xmlns="http://www.w3.org/2000/svg" xmlns:xlink="http://www.w3.org/1999/xlink" x="0px" y="0px"
	 viewBox="0 0 512 512" style="enable-background:new 0 0 512 512;" xml:space="preserve">
<path style="fill:#35495C;" d="M472,480V32c0-17.672-14.328-32-32-32H72C54.328,0,40,14.328,40,32v448c0,17.672,14.328,32,32,32h368
	C457.672,512,472,497.672,472,480z"/>
<path style="fill:#B0C4D9;" d="M336,360h96c4.416,0,8,3.584,8,8v96c0,4.416-3.584,8-8,8h-96c-4.416,0-8-3.584-8-8v-96
	C328,363.584,331.584,360,336,360z"/>
<path style="fill:#89C763;" d="M80,40h352c4.416,0,8,3.584,8,8v144c0,4.416-3.584,8-8,8H80c-4.416,0-8-3.584-8-8V48
	C72,43.584,75.584,40,80,40z"/>
<g>
	<path style="fill:#576D7E;" d="M80,360h96c4.416,0,8,3.584,8,8v96c0,4.416-3.584,8-8,8H80c-4.416,0-8-3.584-8-8v-96
		C72,363.584,75.584,360,80,360z"/>
	<path style="fill:#576D7E;" d="M208,360h96c4.416,0,8,3.584,8,8v96c0,4.416-3.584,8-8,8h-96c-4.416,0-8-3.584-8-8v-96
		C200,363.584,203.584,360,208,360z"/>
</g>
<path style="fill:#DE333F;" d="M336,232h96c4.416,0,8,3.584,8,8v96c0,4.416-3.584,8-8,8h-96c-4.416,0-8-3.584-8-8v-96
	C328,235.584,331.584,232,336,232z"/>
<g>
	<path style="fill:#576D7E;" d="M80,232h96c4.416,0,8,3.584,8,8v96c0,4.416-3.584,8-8,8H80c-4.416,0-8-3.584-8-8v-96
		C72,235.584,75.584,232,80,232z"/>
	<path style="fill:#576D7E;" d="M208,232h96c4.416,0,8,3.584,8,8v96c0,4.416-3.584,8-8,8h-96c-4.416,0-8-3.584-8-8v-96
		C200,235.584,203.584,232,208,232z"/>
</g>
<g>
	<path style="fill:#E2E5E7;" d="M152,280h-16v-16c0-4.416-3.584-8-8-8s-8,3.584-8,8v16h-16c-4.416,0-8,3.584-8,8s3.584,8,8,8h16v16
		c0,4.416,3.584,8,8,8s8-3.584,8-8v-16h16c4.416,0,8-3.584,8-8S156.416,280,152,280z"/>
	<path style="fill:#E2E5E7;" d="M280,296h-48c-4.416,0-8-3.584-8-8s3.584-8,8-8h48c4.416,0,8,3.584,8,8S284.416,296,280,296z"/>
</g>
<g>
	<path style="fill:#35495C;" d="M360,408h48c4.416,0,8-3.584,8-8s-3.584-8-8-8h-48c-4.416,0-8,3.584-8,8S355.584,408,360,408z"/>
	<path style="fill:#35495C;" d="M408,424h-48c-4.416,0-8,3.584-8,8s3.584,8,8,8h48c4.416,0,8-3.584,8-8S412.416,424,408,424z"/>
</g>
<g>
	<path style="fill:#E2E5E7;" d="M280,408h-48c-4.416,0-8,3.584-8,8s3.584,8,8,8h48c4.416,0,8-3.584,8-8S284.416,408,280,408z"/>
	<circle style="fill:#E2E5E7;" cx="256" cy="392" r="8"/>
	<circle style="fill:#E2E5E7;" cx="256" cy="440" r="8"/>
	<path style="fill:#E2E5E7;" d="M384.8,328c-10.76,0.032-21.104-4.16-28.8-11.68c-15.64-15.224-15.976-40.24-0.752-55.888
		c0.248-0.256,0.504-0.504,0.752-0.752c16.072-15.576,41.608-15.576,57.68,0c3.104,3.12,3.104,8.16,0,11.28
		c-3.064,3.184-8.128,3.272-11.312,0.208c-0.072-0.072-0.144-0.136-0.208-0.208c-9.632-9.4-25.008-9.4-34.64,0
		c-9.392,9.36-9.416,24.552-0.056,33.944c0.016,0.016,0.04,0.04,0.056,0.056c9.632,9.4,25.008,9.4,34.64,0
		c3.064-3.184,8.128-3.272,11.312-0.208c0.072,0.072,0.144,0.136,0.208,0.208c3.136,3.112,3.16,8.176,0.048,11.312
		c-0.016,0.016-0.032,0.032-0.048,0.048C405.96,323.856,395.584,328.056,384.8,328z"/>
</g>
<path style="fill:#3CB54A;" d="M432,40H80c-4.416,0-8,3.584-8,8v16c0-4.416,3.584-8,8-8h352c4.416,0,8,3.584,8,8V48
	C440,43.584,436.416,40,432,40z"/>
<path style="fill:#0E9347;" d="M384,176h-16c-13.256,0-24-10.744-24-24v-48c0-13.256,10.744-24,24-24h16c13.256,0,24,10.744,24,24
	v48C408,165.256,397.256,176,384,176z M368,96c-4.416,0-8,3.584-8,8v48c0,4.416,3.584,8,8,8h16c4.416,0,8-3.584,8-8v-48
	c0-4.416-3.584-8-8-8H368z"/>
<path style="fill:#E2E5E7;" d="M139.28,416l10.32-10.32c2.872-3.352,2.48-8.408-0.872-11.28c-2.992-2.568-7.416-2.568-10.408,0
	L128,404.72l-10.32-10.32c-3.352-2.872-8.408-2.48-11.28,0.872c-2.568,2.992-2.568,7.416,0,10.408L116.72,416l-10.32,10.32
	c-3.352,2.872-3.744,7.928-0.872,11.28s7.928,3.744,11.28,0.872c0.312-0.272,0.608-0.56,0.872-0.872L128,427.28l10.32,10.32
	c3.352,2.872,8.408,2.48,11.28-0.872c2.568-2.992,2.568-7.416,0-10.408L139.28,416z"/>
<path style="fill:#123247;" d="M456,48v432c0,8.84-7.16,16-16,16H88c-8.84,0-16,7.16-16,16h368c17.672,0,32-14.328,32-32V32l0,0
	C463.16,32,456,39.16,456,48z"/>
<path style="fill:#99B5CD;" d="M424,384v72h-72c-8.84,0-16,7.16-16,16h96c4.416,0,8-3.584,8-8v-96l0,0
	C431.16,368,424,375.16,424,384z"/>
<path style="fill:#C61C31;" d="M424,256v72h-72c-8.84,0-16,7.16-16,16h96c4.416,0,8-3.584,8-8v-96l0,0
	C431.16,240,424,247.16,424,256z"/>
<g>
	<path style="fill:#3F556B;" d="M296,256v72h-72c-8.84,0-16,7.16-16,16h96c4.416,0,8-3.584,8-8v-96l0,0
		C303.16,240,296,247.16,296,256z"/>
	<path style="fill:#3F556B;" d="M296,384v72h-72c-8.84,0-16,7.16-16,16h96c4.416,0,8-3.584,8-8v-96l0,0
		C303.16,368,296,375.16,296,384z"/>
	<path style="fill:#3F556B;" d="M168,256v72H96c-8.84,0-16,7.16-16,16h96c4.416,0,8-3.584,8-8v-96l0,0
		C175.16,240,168,247.16,168,256z"/>
	<path style="fill:#3F556B;" d="M168,384v72H96c-8.84,0-16,7.16-16,16h96c4.416,0,8-3.584,8-8v-96l0,0
		C175.16,368,168,375.16,168,384z"/>
</g>
<path style="fill:#435970;" d="M72,0h368l0,0l0,0c0,8.84-7.16,16-16,16H88C79.16,16,72,8.84,72,0L72,0L72,0z"/>
<g>
</g>
<g>
</g>
<g>
</g>
<g>
</g>
<g>
</g>
<g>
</g>
<g>
</g>
<g>
</g>
<g>
</g>
<g>
</g>
<g>
</g>
<g>
</g>
<g>
</g>
<g>
</g>
<g>
</g>
</svg>
